<svg width="327" height="101" viewBox="0 0 327 101" fill="none" xmlns="http://www.w3.org/2000/svg">
<path d="M27.0501 62.4333C26.2486 62.4333 25.6001 63.0857 25.6001 63.8919V81.3914C25.6001 82.1976 26.2486 82.85 27.0501 82.85C27.8516 82.85 28.5001 82.1976 28.5001 81.3914V63.8919C28.5001 63.0857 27.8516 62.4333 27.0501 62.4333Z" fill="#E6BB22"/>
<path fill-rule="evenodd" clip-rule="evenodd" d="M48.7998 36.1838V39.1004C48.7998 40.0618 48.3041 40.8751 47.5887 41.4068C48.3373 42.3894 48.8 43.6028 48.8 44.9336V46.9672C48.8 48.9212 47.8344 50.7354 46.2172 51.8207L45.2487 52.4701C44.838 52.7449 44.603 53.1879 44.603 53.6835C44.603 54.1791 44.838 54.622 45.2487 54.8969L46.2172 55.5463C47.8344 56.6314 48.8 58.4458 48.8 60.3997V85.7667C48.8 88.9839 46.1974 91.6 43 91.6H25.6001C22.4027 91.6 19.8 88.9838 19.8 85.7667V60.3999C19.8 58.4459 20.7657 56.6317 22.3829 55.5464L23.3514 54.897C23.7621 54.6222 23.9971 54.1792 23.9971 53.6836C23.9971 53.188 23.7621 52.7451 23.3514 52.4703L22.3829 51.8208C20.7657 50.7357 19.8 48.9213 19.8 46.9674V44.9337C19.8 43.6028 20.2626 42.3894 21.0114 41.4069C20.2957 40.8752 19.8 40.0619 19.8 39.1004V36.1838C19.8 34.576 21.0999 33.2672 22.7 33.2672V30.3506C22.7 28.7428 23.9998 27.434 25.5999 27.434H31.4V25.9756C31.4 25.5882 31.5529 25.218 31.8248 24.9445L34.7247 22.0279C35.141 21.6092 35.7669 21.4853 36.305 21.7117C36.8459 21.9367 37.1999 22.4693 37.1999 23.0589V27.4339H42.9999C44.5999 27.4339 45.8998 28.7427 45.8998 30.3505V33.2672C47.4998 33.2672 48.7998 34.576 48.7998 36.1838ZM42.9998 30.3505H25.5998V33.2671H42.9998V30.3505ZM45.8998 46.9672C45.8998 47.9442 45.4155 48.8513 44.6084 49.394L43.6399 50.0434C42.4277 50.8566 41.7028 52.218 41.7028 53.6835C41.7028 55.149 42.4277 56.5104 43.6399 57.3236L44.6084 57.973C45.4156 58.5156 45.8998 59.4227 45.8998 60.3997V85.7665C45.8998 87.3743 44.5999 88.6831 42.9999 88.6831H25.5999C23.9998 88.6831 22.7 87.3743 22.7 85.7665V60.3997C22.7 59.4227 23.1843 58.5156 23.9914 57.973L24.9599 57.3236C26.1721 56.5104 26.8971 55.149 26.8971 53.6835C26.8971 52.218 26.1721 50.8566 24.9599 50.0434L23.9914 49.394C23.1842 48.8513 22.7 47.9442 22.7 46.9672V44.9336C22.7 43.3258 24 42.017 25.5999 42.017H42.9999C44.6 42.017 45.8998 43.3258 45.8998 44.9336V46.9672ZM45.8998 39.9119L45.9011 39.9125L45.9027 39.1004H45.8998V36.1838H22.6999V39.1004H45.8998V39.9119Z" fill="#E6BB22"/>
<path fill-rule="evenodd" clip-rule="evenodd" d="M246.3 1.65883C246.589 1.65883 246.823 1.4218 246.823 1.12942C246.823 0.837032 246.589 0.600006 246.3 0.600006C246.011 0.600006 245.777 0.837032 245.777 1.12942C245.777 1.4218 246.011 1.65883 246.3 1.65883ZM212.323 21.2471C212.611 21.2471 212.846 21.01 212.846 20.7177C212.846 20.4253 212.611 20.1882 212.323 20.1882C212.034 20.1882 211.8 20.4253 211.8 20.7177C211.8 21.01 212.034 21.2471 212.323 21.2471ZM236.368 22.3059C236.368 22.5983 236.134 22.8353 235.846 22.8353C235.557 22.8353 235.323 22.5983 235.323 22.3059C235.323 22.0135 235.557 21.7765 235.846 21.7765C236.134 21.7765 236.368 22.0135 236.368 22.3059ZM264.596 30.7765C264.884 30.7765 265.118 30.5395 265.118 30.2471C265.118 29.9547 264.884 29.7177 264.596 29.7177C264.307 29.7177 264.073 29.9547 264.073 30.2471C264.073 30.5395 264.307 30.7765 264.596 30.7765ZM252.573 46.1294C252.573 46.7142 252.105 47.1882 251.527 47.1882C250.95 47.1882 250.482 46.7142 250.482 46.1294C250.482 45.5446 250.95 45.0706 251.527 45.0706C252.105 45.0706 252.573 45.5446 252.573 46.1294ZM268.255 77.8941C268.255 78.4789 267.787 78.9529 267.209 78.9529C266.632 78.9529 266.164 78.4789 266.164 77.8941C266.164 77.3093 266.632 76.8353 267.209 76.8353C267.787 76.8353 268.255 77.3093 268.255 77.8941ZM246.3 81.6C246.877 81.6 247.346 81.126 247.346 80.5412C247.346 79.9564 246.877 79.4824 246.3 79.4824C245.723 79.4824 245.255 79.9564 245.255 80.5412C245.255 81.126 245.723 81.6 246.3 81.6ZM229.05 62.0118C229.05 62.5965 228.582 63.0706 228.005 63.0706C227.427 63.0706 226.959 62.5965 226.959 62.0118C226.959 61.427 227.427 60.9529 228.005 60.9529C228.582 60.9529 229.05 61.427 229.05 62.0118ZM235.846 38.9824C236.134 38.9824 236.368 38.7453 236.368 38.4529C236.368 38.1606 236.134 37.9235 235.846 37.9235C235.557 37.9235 235.323 38.1606 235.323 38.4529C235.323 38.7453 235.557 38.9824 235.846 38.9824ZM212.846 38.4529C212.846 38.7453 212.611 38.9824 212.323 38.9824C212.034 38.9824 211.8 38.7453 211.8 38.4529C211.8 38.1606 212.034 37.9235 212.323 37.9235C212.611 37.9235 212.846 38.1606 212.846 38.4529ZM280.8 20.7177C280.8 21.01 280.566 21.2471 280.277 21.2471C279.989 21.2471 279.755 21.01 279.755 20.7177C279.755 20.4253 279.989 20.1882 280.277 20.1882C280.566 20.1882 280.8 20.4253 280.8 20.7177Z" fill="#E6BB22"/>
<ellipse rx="1.04545" ry="1.05882" transform="matrix(-1 0 0 1 30.0728 46.1294)" fill="#E6BB22"/>
<ellipse rx="1.04545" ry="1.05882" transform="matrix(-1 0 0 1 14.3909 77.8941)" fill="#E6BB22"/>
<ellipse rx="1.04545" ry="1.05882" transform="matrix(-1 0 0 1 35.3 80.5412)" fill="#E6BB22"/>
<ellipse rx="1.04545" ry="1.05882" transform="matrix(-1 0 0 1 53.5955 62.0118)" fill="#E6BB22"/>
<ellipse rx="0.522727" ry="0.529412" transform="matrix(-1 0 0 1 17.0046 30.2471)" fill="#E6BB22"/>
<ellipse rx="0.522727" ry="0.529412" transform="matrix(-1 0 0 1 45.7546 22.3059)" fill="#E6BB22"/>
<ellipse rx="0.522727" ry="0.529412" transform="matrix(-1 0 0 1 45.7546 38.4529)" fill="#E6BB22"/>
<ellipse rx="0.522727" ry="0.529412" transform="matrix(-1 0 0 1 69.2773 38.4529)" fill="#E6BB22"/>
<ellipse rx="0.522727" ry="0.529412" transform="matrix(-1 0 0 1 69.2773 20.7176)" fill="#E6BB22"/>
<ellipse rx="0.522727" ry="0.529412" transform="matrix(-1 0 0 1 1.32273 20.7176)" fill="#E6BB22"/>
<ellipse rx="0.522727" ry="0.529412" transform="matrix(-1 0 0 1 35.3 1.12942)" fill="#E6BB22"/>
<path fill-rule="evenodd" clip-rule="evenodd" d="M106.3 99.5412C106.011 99.5412 105.777 99.7782 105.777 100.071C105.777 100.363 106.011 100.6 106.3 100.6C106.589 100.6 106.823 100.363 106.823 100.071C106.823 99.7782 106.589 99.5412 106.3 99.5412ZM140.277 79.9529C139.989 79.9529 139.755 80.19 139.755 80.4824C139.755 80.7747 139.989 81.0118 140.277 81.0118C140.566 81.0118 140.8 80.7747 140.8 80.4824C140.8 80.19 140.566 79.9529 140.277 79.9529ZM116.232 78.8941C116.232 78.6017 116.466 78.3647 116.755 78.3647C117.043 78.3647 117.277 78.6017 117.277 78.8941C117.277 79.1865 117.043 79.4235 116.755 79.4235C116.466 79.4235 116.232 79.1865 116.232 78.8941ZM88.0046 70.4235C87.7159 70.4235 87.4819 70.6606 87.4819 70.9529C87.4819 71.2453 87.7159 71.4824 88.0046 71.4824C88.2933 71.4824 88.5273 71.2453 88.5273 70.9529C88.5273 70.6606 88.2933 70.4235 88.0046 70.4235ZM100.027 55.0706C100.027 54.4858 100.495 54.0118 101.073 54.0118C101.65 54.0118 102.118 54.4858 102.118 55.0706C102.118 55.6554 101.65 56.1294 101.073 56.1294C100.495 56.1294 100.027 55.6554 100.027 55.0706ZM84.3455 23.3059C84.3455 22.7211 84.8136 22.2471 85.391 22.2471C85.9683 22.2471 86.4364 22.7211 86.4364 23.3059C86.4364 23.8907 85.9683 24.3647 85.391 24.3647C84.8136 24.3647 84.3455 23.8907 84.3455 23.3059ZM106.3 19.6C105.723 19.6 105.255 20.0741 105.255 20.6588C105.255 21.2436 105.723 21.7177 106.3 21.7177C106.877 21.7177 107.346 21.2436 107.346 20.6588C107.346 20.0741 106.877 19.6 106.3 19.6ZM123.55 39.1882C123.55 38.6035 124.018 38.1294 124.596 38.1294C125.173 38.1294 125.641 38.6035 125.641 39.1882C125.641 39.773 125.173 40.2471 124.596 40.2471C124.018 40.2471 123.55 39.773 123.55 39.1882ZM116.755 62.2177C116.466 62.2177 116.232 62.4547 116.232 62.7471C116.232 63.0395 116.466 63.2765 116.755 63.2765C117.043 63.2765 117.277 63.0395 117.277 62.7471C117.277 62.4547 117.043 62.2177 116.755 62.2177ZM139.755 62.7471C139.755 62.4547 139.989 62.2177 140.277 62.2177C140.566 62.2177 140.8 62.4547 140.8 62.7471C140.8 63.0395 140.566 63.2765 140.277 63.2765C139.989 63.2765 139.755 63.0395 139.755 62.7471ZM71.8 80.4824C71.8 80.19 72.0341 79.9529 72.3228 79.9529C72.6115 79.9529 72.8455 80.19 72.8455 80.4824C72.8455 80.7747 72.6115 81.0118 72.3228 81.0118C72.0341 81.0118 71.8 80.7747 71.8 80.4824Z" fill="#E6BB22"/>
<ellipse cx="157.073" cy="41.0706" rx="1.04545" ry="1.05882" transform="rotate(-180 157.073 41.0706)" fill="#E6BB22"/>
<ellipse cx="141.391" cy="9.30589" rx="1.04545" ry="1.05882" transform="rotate(-180 141.391 9.30589)" fill="#E6BB22"/>
<ellipse cx="162.3" cy="6.65883" rx="1.04545" ry="1.05882" transform="rotate(-180 162.3 6.65883)" fill="#E6BB22"/>
<ellipse cx="180.595" cy="25.1882" rx="1.04545" ry="1.05882" transform="rotate(-180 180.595 25.1882)" fill="#E6BB22"/>
<ellipse cx="144.005" cy="56.9529" rx="0.522727" ry="0.529412" transform="rotate(-180 144.005 56.9529)" fill="#E6BB22"/>
<ellipse cx="172.755" cy="64.8941" rx="0.522727" ry="0.529412" transform="rotate(-180 172.755 64.8941)" fill="#E6BB22"/>
<ellipse cx="172.755" cy="48.7471" rx="0.522727" ry="0.529412" transform="rotate(-180 172.755 48.7471)" fill="#E6BB22"/>
<ellipse cx="196.277" cy="48.7471" rx="0.522727" ry="0.529412" transform="rotate(-180 196.277 48.7471)" fill="#E6BB22"/>
<ellipse cx="196.277" cy="66.4824" rx="0.522727" ry="0.529412" transform="rotate(-180 196.277 66.4824)" fill="#E6BB22"/>
<ellipse cx="128.323" cy="66.4824" rx="0.522727" ry="0.529412" transform="rotate(-180 128.323 66.4824)" fill="#E6BB22"/>
<ellipse cx="162.3" cy="86.0706" rx="0.522727" ry="0.529412" transform="rotate(-180 162.3 86.0706)" fill="#E6BB22"/>
<path fill-rule="evenodd" clip-rule="evenodd" d="M284.832 59.3353H299.108C300.795 59.3353 302.168 60.7008 302.168 62.3794C302.168 64.0581 300.795 65.4235 299.108 65.4235H284.832C283.145 65.4235 281.773 64.0581 281.773 62.3794C281.773 60.7008 283.145 59.3353 284.832 59.3353ZM284.832 63.3941H299.108C299.67 63.3941 300.128 62.9392 300.128 62.3794C300.128 61.8195 299.67 61.3647 299.108 61.3647H284.832C284.27 61.3647 283.812 61.8195 283.812 62.3793C283.812 62.9392 284.27 63.3941 284.832 63.3941Z" fill="#E6BB22"/>
<path fill-rule="evenodd" clip-rule="evenodd" d="M320.675 36.6909H325.779C326.343 36.6909 326.8 37.1484 326.8 37.7137V52.0318C326.8 54.333 326.102 58.4049 324.787 60.4893V65.3272C324.787 67.5835 322.954 69.4181 320.701 69.4181H306.402C305.566 69.4181 304.775 69.1339 304.101 68.6673C303.392 69.7562 302.916 70.4959 302.833 70.6243L302.821 70.6436C302.781 70.7055 302.735 70.7614 302.683 70.8134C302.553 70.9443 302.42 71.0701 302.282 71.1919V73.5091C302.282 75.7653 300.45 77.6 298.199 77.6H283.899C281.646 77.6 279.814 75.7652 279.814 73.5091V68.671C278.498 66.5867 277.8 62.5147 277.8 60.2136V45.8955C277.8 45.3302 278.257 44.8727 278.821 44.8728H283.925V43.8501C283.925 43.2847 284.382 42.8273 284.946 42.8273H290.05V41.8045C290.05 41.2392 290.507 40.7818 291.071 40.7818H297.196C297.76 40.7818 298.217 41.2392 298.217 41.8045V42.8273H300.246V35.6683C300.246 35.103 300.703 34.6455 301.267 34.6455H306.383V33.6228C306.383 33.0575 306.84 32.6 307.404 32.6H313.529C314.093 32.6 314.55 33.0575 314.55 33.6228V34.6454H319.654C320.218 34.6454 320.675 35.1029 320.675 35.6682V36.6909ZM300.781 69.7878C300.912 69.6779 301.04 69.562 301.164 69.4411L301.175 69.423C301.815 68.4326 306.467 61.2305 309.821 56.5361L306.358 53.389C305.257 54.8792 304.224 56.622 304.212 56.643C303.979 57.0396 303.508 57.2284 303.064 57.1095C302.619 56.9876 302.312 56.5831 302.312 56.1227V44.8727H298.217V47.9409C298.217 48.5062 297.76 48.9637 297.196 48.9637C296.632 48.9637 296.175 48.5062 296.175 47.9409V42.8273H292.092V47.9409C292.092 48.5062 291.635 48.9637 291.071 48.9637C290.507 48.9637 290.05 48.5062 290.05 47.9409V44.8727H285.967V47.9409C285.967 48.5062 285.51 48.9637 284.946 48.9637C284.382 48.9637 283.925 48.5062 283.925 47.941V46.9182H279.842V60.2136C279.842 62.5796 280.643 66.3979 281.676 67.7762C281.855 68.0168 281.919 68.3215 281.855 68.6101V73.5091C281.855 74.6366 282.773 75.5545 283.899 75.5545H298.199C299.325 75.5545 300.24 74.6366 300.24 73.5091V70.6907C300.24 70.3011 300.458 69.9605 300.781 69.7878ZM309.028 53.0546H319.654C320.216 53.0546 320.675 53.513 320.675 54.0773C320.675 54.6416 320.216 55.1001 319.654 55.1001H311.278L309.028 53.0546ZM322.924 59.5944C323.957 58.2161 324.758 54.3979 324.758 52.0318H324.759V38.7364H320.675V39.7591C320.675 40.3244 320.219 40.7819 319.654 40.7819C319.09 40.7819 318.633 40.3244 318.633 39.7591V36.6909H314.55V39.7591C314.55 40.3244 314.093 40.7819 313.529 40.7819C312.965 40.7819 312.508 40.3244 312.508 39.7591V34.6455H308.425V39.7591C308.425 40.3244 307.968 40.7819 307.404 40.7819C306.84 40.7819 306.383 40.3244 306.383 39.7591V36.6909H302.288V42.8272H303.333C303.897 42.8272 304.354 43.2846 304.354 43.85V52.673C304.707 52.1756 305.079 51.6773 305.446 51.2368C305.624 51.023 305.881 50.8911 306.158 50.8712C306.35 50.8677 306.531 50.9234 306.699 51.0091H319.654C321.343 51.0091 322.717 52.3853 322.717 54.0772C322.717 55.7692 321.343 57.1454 319.654 57.1454H311.9C309.831 60.0006 307.131 64.0482 305.212 66.9704C305.555 67.2231 305.962 67.3726 306.401 67.3726H320.701C321.828 67.3726 322.745 66.4548 322.745 65.3272V60.3744C322.697 60.1028 322.757 59.8192 322.924 59.5944Z" fill="#E6BB22"/>
</svg>
