<svg width="174" height="29" viewBox="0 0 174 29" fill="none" xmlns="http://www.w3.org/2000/svg">
<g id="Logo" clip-path="url(#clip0_0_820)">
<g id="chain">
<path id="Shape" fill-rule="evenodd" clip-rule="evenodd" d="M4.20007 24C4.20007 22.6764 5.27647 21.6 6.60007 21.6C7.92367 21.6 9.00007 22.6764 9.00007 24C9.00007 25.3236 7.92367 26.4 6.60007 26.4C5.27647 26.4 4.20007 25.3236 4.20007 24ZM5.40007 24C5.40007 24.6618 5.93827 25.2 6.60007 25.2C7.26187 25.2 7.80007 24.6618 7.80007 24C7.80007 23.3382 7.26187 22.8 6.60007 22.8C5.93827 22.8 5.40007 23.3382 5.40007 24Z" fill="#363C44"/>
<path id="Shape_2" fill-rule="evenodd" clip-rule="evenodd" d="M15.8396 10.0047L15.1275 9.82493C14.208 9.59287 13.3681 9.11171 12.6991 8.43667L12.6491 8.38556C11.9789 7.70817 11.5023 6.85864 11.2727 5.92922L11.0989 5.22598C11.0599 2.66859 8.98953 0.600006 6.45005 0.600006C3.88616 0.600006 1.80005 2.70854 1.80005 5.30001C1.80005 7.86679 3.84663 9.95947 6.37623 9.99942L7.07199 10.1751C7.99152 10.4071 8.83143 10.8883 9.50045 11.5633L9.55044 11.6145C10.2206 12.2918 10.6972 13.1414 10.9268 14.0708L11.082 14.6994L10.9268 15.3286C10.6967 16.2581 10.2206 17.107 9.55044 17.7856L9.50277 17.8337C8.83201 18.5111 7.99152 18.9929 7.07199 19.2249L6.37623 19.4006C3.84663 19.4405 1.80005 21.5332 1.80005 24.1C1.80005 26.6915 3.88616 28.8 6.45005 28.8C8.98953 28.8 11.0599 26.7314 11.0995 24.1746L11.2733 23.4714C11.5034 22.542 11.9795 21.693 12.6497 21.0145L12.6973 20.9663C13.3681 20.2889 14.2086 19.8071 15.1281 19.5751L15.8239 19.3994C18.3535 19.3595 20.4 17.2668 20.4 14.7C20.4 12.1391 18.3622 10.0535 15.8396 10.0047ZM10.3746 10.7861L10.3247 10.735C9.5051 9.90659 8.47745 9.31851 7.35389 9.03474L6.59129 8.84204C6.54479 8.83088 6.49771 8.82501 6.45005 8.82501C4.52669 8.82501 2.96255 7.24404 2.96255 5.30001C2.96255 3.35597 4.52669 1.77501 6.45005 1.77501C8.3734 1.77501 9.93755 3.35597 9.93755 5.30001C9.93755 5.34818 9.94336 5.39577 9.95499 5.44277L10.1456 6.21416C10.4258 7.35038 11.0076 8.38849 11.8254 9.21393L11.8754 9.26504C12.391 9.78616 12.9949 10.1986 13.6465 10.5135C12.77 10.9653 12.055 11.6897 11.6081 12.5756C11.2971 11.9164 10.8891 11.306 10.3746 10.7861ZM15.6094 18.2426C15.6553 18.2309 15.7024 18.225 15.75 18.225C17.6734 18.225 19.2375 16.644 19.2375 14.7C19.2375 12.756 17.6734 11.175 15.75 11.175C13.8267 11.175 12.2625 12.756 12.2625 14.7C12.2625 14.7482 12.2567 14.7958 12.2445 14.8428L12.0539 15.6136C11.7731 16.7492 11.1913 17.7879 10.3717 18.6163L10.3241 18.6645C9.50452 19.4934 8.47745 20.0815 7.35331 20.3647L6.59071 20.5574C6.54479 20.5691 6.49771 20.575 6.45005 20.575C4.52669 20.575 2.96255 22.156 2.96255 24.1C2.96255 26.044 4.52669 27.625 6.45005 27.625C8.3734 27.625 9.93755 26.044 9.93755 24.1C9.93755 24.0518 9.94336 24.0042 9.95557 23.9572L10.1462 23.1864C10.427 22.0508 11.0088 21.0121 11.8284 20.1837L11.876 20.1356C12.6956 19.3066 13.7226 18.7185 14.8468 18.4353L15.6094 18.2426Z" fill="#363C44"/>
<path id="Shape_3" fill-rule="evenodd" clip-rule="evenodd" d="M13.2001 15C13.2001 13.6764 14.2765 12.6 15.6001 12.6C16.9237 12.6 18.0001 13.6764 18.0001 15C18.0001 16.3236 16.9237 17.4 15.6001 17.4C14.2765 17.4 13.2001 16.3236 13.2001 15ZM14.4001 15C14.4001 15.6618 14.9383 16.2 15.6001 16.2C16.2619 16.2 16.8001 15.6618 16.8001 15C16.8001 14.3382 16.2619 13.8 15.6001 13.8C14.9383 13.8 14.4001 14.3382 14.4001 15Z" fill="#363C44"/>
<path id="Shape_4" fill-rule="evenodd" clip-rule="evenodd" d="M4.20007 5.4C4.20007 4.0764 5.27647 3 6.60007 3C7.92367 3 9.00007 4.0764 9.00007 5.4C9.00007 6.7236 7.92367 7.8 6.60007 7.8C5.27647 7.8 4.20007 6.7236 4.20007 5.4ZM5.40007 5.4C5.40007 6.0618 5.93827 6.6 6.60007 6.6C7.26187 6.6 7.80007 6.0618 7.80007 5.4C7.80007 4.7382 7.26187 4.2 6.60007 4.2C5.93827 4.2 5.40007 4.7382 5.40007 5.4Z" fill="#363C44"/>
</g>
<path id="Cycling Community" d="M33.0912 16.96C33.0912 15.9712 33.3072 15.088 33.7392 14.3104C34.1712 13.5232 34.7616 12.9136 35.5104 12.4816C36.2592 12.04 37.0944 11.8192 38.016 11.8192C39.1392 11.8192 40.0992 12.088 40.896 12.6256C41.7024 13.1536 42.288 13.9024 42.6528 14.872H41.472C41.184 14.1904 40.7424 13.6576 40.1472 13.2736C39.5616 12.8896 38.8512 12.6976 38.016 12.6976C37.2768 12.6976 36.6096 12.8704 36.0144 13.216C35.4288 13.5616 34.968 14.0608 34.632 14.7136C34.296 15.3568 34.128 16.1056 34.128 16.96C34.128 17.8144 34.296 18.5632 34.632 19.2064C34.968 19.8496 35.4288 20.344 36.0144 20.6896C36.6096 21.0352 37.2768 21.208 38.016 21.208C38.8512 21.208 39.5616 21.0208 40.1472 20.6464C40.7424 20.2624 41.184 19.7344 41.472 19.0624H42.6528C42.288 20.0224 41.7024 20.7664 40.896 21.2944C40.0896 21.8224 39.1296 22.0864 38.016 22.0864C37.0944 22.0864 36.2592 21.8704 35.5104 21.4384C34.7616 20.9968 34.1712 20.3872 33.7392 19.6096C33.3072 18.832 33.0912 17.9488 33.0912 16.96ZM51.1414 14.1376L46.4758 25.7008H45.4246L46.951 21.9568L43.7254 14.1376H44.8342L47.5126 20.848L50.1046 14.1376H51.1414ZM52.0475 18.0688C52.0475 17.2528 52.2107 16.5424 52.5371 15.9376C52.8635 15.3232 53.3147 14.8528 53.8907 14.5264C54.4667 14.1904 55.1243 14.0224 55.8635 14.0224C56.8331 14.0224 57.6299 14.2624 58.2539 14.7424C58.8875 15.2224 59.2955 15.8752 59.4779 16.7008H58.3979C58.2635 16.1344 57.9707 15.6928 57.5195 15.376C57.0779 15.0496 56.5259 14.8864 55.8635 14.8864C55.3355 14.8864 54.8603 15.0064 54.4379 15.2464C54.0155 15.4864 53.6795 15.8464 53.4299 16.3264C53.1899 16.7968 53.0699 17.3776 53.0699 18.0688C53.0699 18.76 53.1899 19.3456 53.4299 19.8256C53.6795 20.3056 54.0155 20.6656 54.4379 20.9056C54.8603 21.1456 55.3355 21.2656 55.8635 21.2656C56.5259 21.2656 57.0779 21.1072 57.5195 20.7904C57.9707 20.464 58.2635 20.0128 58.3979 19.4368H59.4779C59.2955 20.2432 58.8875 20.8912 58.2539 21.3808C57.6203 21.8704 56.8235 22.1152 55.8635 22.1152C55.1243 22.1152 54.4667 21.952 53.8907 21.6256C53.3147 21.2896 52.8635 20.8192 52.5371 20.2144C52.2107 19.6 52.0475 18.8848 52.0475 18.0688ZM62.3475 11.344V22H61.3395V11.344H62.3475ZM65.1341 12.6544C64.9325 12.6544 64.7597 12.5824 64.6157 12.4384C64.4717 12.2944 64.3997 12.1168 64.3997 11.9056C64.3997 11.6944 64.4717 11.5216 64.6157 11.3872C64.7597 11.2432 64.9325 11.1712 65.1341 11.1712C65.3357 11.1712 65.5085 11.2432 65.6525 11.3872C65.7965 11.5216 65.8685 11.6944 65.8685 11.9056C65.8685 12.1168 65.7965 12.2944 65.6525 12.4384C65.5085 12.5824 65.3357 12.6544 65.1341 12.6544ZM65.6381 14.1376V22H64.6301V14.1376H65.6381ZM71.6072 13.9936C72.548 13.9936 73.316 14.2864 73.9112 14.872C74.5064 15.448 74.804 16.288 74.804 17.392V22H73.8104V17.5072C73.8104 16.6528 73.5944 16 73.1624 15.5488C72.74 15.0976 72.1592 14.872 71.42 14.872C70.6616 14.872 70.0568 15.112 69.6056 15.592C69.1544 16.072 68.9288 16.7776 68.9288 17.7088V22H67.9208V14.1376H68.9288V15.4768C69.1784 14.9968 69.5384 14.632 70.0088 14.3824C70.4792 14.1232 71.012 13.9936 71.6072 13.9936ZM80.3309 14.0224C81.0701 14.0224 81.7133 14.1952 82.2605 14.5408C82.8077 14.8864 83.2013 15.3232 83.4413 15.8512V14.1376H84.4493V22.2016C84.4493 22.9216 84.2909 23.56 83.9741 24.1168C83.6669 24.6736 83.2349 25.1008 82.6781 25.3984C82.1213 25.7056 81.4877 25.8592 80.7773 25.8592C79.7693 25.8592 78.9293 25.6192 78.2573 25.1392C77.5949 24.6592 77.1821 24.0064 77.0189 23.1808H78.0125C78.1853 23.728 78.5117 24.1648 78.9917 24.4912C79.4813 24.8176 80.0765 24.9808 80.7773 24.9808C81.2861 24.9808 81.7421 24.8704 82.1453 24.6496C82.5485 24.4384 82.8653 24.1216 83.0957 23.6992C83.3261 23.2768 83.4413 22.7776 83.4413 22.2016V20.2576C83.1917 20.7952 82.7933 21.2416 82.2461 21.5968C81.7085 21.9424 81.0701 22.1152 80.3309 22.1152C79.6109 22.1152 78.9629 21.9472 78.3869 21.6112C77.8205 21.2752 77.3741 20.8 77.0477 20.1856C76.7309 19.5712 76.5725 18.8608 76.5725 18.0544C76.5725 17.248 76.7309 16.5424 77.0477 15.9376C77.3741 15.3232 77.8205 14.8528 78.3869 14.5264C78.9629 14.1904 79.6109 14.0224 80.3309 14.0224ZM83.4413 18.0688C83.4413 17.4352 83.3117 16.8784 83.0525 16.3984C82.7933 15.9184 82.4381 15.5488 81.9869 15.2896C81.5453 15.0304 81.0557 14.9008 80.5181 14.9008C79.9613 14.9008 79.4621 15.0256 79.0205 15.2752C78.5789 15.5248 78.2285 15.8896 77.9693 16.3696C77.7197 16.84 77.5949 17.4016 77.5949 18.0544C77.5949 18.6976 77.7197 19.264 77.9693 19.7536C78.2285 20.2336 78.5789 20.6032 79.0205 20.8624C79.4621 21.112 79.9613 21.2368 80.5181 21.2368C81.0557 21.2368 81.5453 21.1072 81.9869 20.848C82.4381 20.5888 82.7933 20.2192 83.0525 19.7392C83.3117 19.2592 83.4413 18.7024 83.4413 18.0688ZM90.2412 16.96C90.2412 15.9712 90.4572 15.088 90.8892 14.3104C91.3212 13.5232 91.9116 12.9136 92.6604 12.4816C93.4092 12.04 94.2444 11.8192 95.166 11.8192C96.2892 11.8192 97.2492 12.088 98.046 12.6256C98.8524 13.1536 99.438 13.9024 99.8028 14.872H98.622C98.334 14.1904 97.8924 13.6576 97.2972 13.2736C96.7116 12.8896 96.0012 12.6976 95.166 12.6976C94.4268 12.6976 93.7596 12.8704 93.1644 13.216C92.5788 13.5616 92.118 14.0608 91.782 14.7136C91.446 15.3568 91.278 16.1056 91.278 16.96C91.278 17.8144 91.446 18.5632 91.782 19.2064C92.118 19.8496 92.5788 20.344 93.1644 20.6896C93.7596 21.0352 94.4268 21.208 95.166 21.208C96.0012 21.208 96.7116 21.0208 97.2972 20.6464C97.8924 20.2624 98.334 19.7344 98.622 19.0624H99.8028C99.438 20.0224 98.8524 20.7664 98.046 21.2944C97.2396 21.8224 96.2796 22.0864 95.166 22.0864C94.2444 22.0864 93.4092 21.8704 92.6604 21.4384C91.9116 20.9968 91.3212 20.3872 90.8892 19.6096C90.4572 18.832 90.2412 17.9488 90.2412 16.96ZM105.253 22.1152C104.514 22.1152 103.847 21.952 103.251 21.6256C102.666 21.2896 102.2 20.8192 101.855 20.2144C101.519 19.6 101.351 18.8848 101.351 18.0688C101.351 17.2528 101.523 16.5424 101.869 15.9376C102.215 15.3232 102.685 14.8528 103.28 14.5264C103.875 14.1904 104.543 14.0224 105.282 14.0224C106.021 14.0224 106.688 14.1904 107.283 14.5264C107.888 14.8528 108.359 15.3232 108.695 15.9376C109.04 16.5424 109.213 17.2528 109.213 18.0688C109.213 18.8752 109.04 19.5856 108.695 20.2C108.349 20.8144 107.874 21.2896 107.269 21.6256C106.664 21.952 105.992 22.1152 105.253 22.1152ZM105.253 21.2368C105.771 21.2368 106.251 21.1216 106.693 20.8912C107.135 20.6512 107.49 20.296 107.759 19.8256C108.037 19.3456 108.176 18.76 108.176 18.0688C108.176 17.3776 108.042 16.7968 107.773 16.3264C107.504 15.8464 107.149 15.4912 106.707 15.2608C106.266 15.0208 105.786 14.9008 105.267 14.9008C104.749 14.9008 104.269 15.0208 103.827 15.2608C103.386 15.4912 103.031 15.8464 102.762 16.3264C102.503 16.7968 102.373 17.3776 102.373 18.0688C102.373 18.76 102.503 19.3456 102.762 19.8256C103.031 20.296 103.381 20.6512 103.813 20.8912C104.255 21.1216 104.735 21.2368 105.253 21.2368ZM120.41 13.9936C121.332 13.9936 122.081 14.2864 122.657 14.872C123.242 15.448 123.535 16.288 123.535 17.392V22H122.542V17.5072C122.542 16.6528 122.335 16 121.922 15.5488C121.51 15.0976 120.948 14.872 120.238 14.872C119.498 14.872 118.908 15.1168 118.466 15.6064C118.025 16.096 117.804 16.8064 117.804 17.7376V22H116.81V17.5072C116.81 16.6528 116.604 16 116.191 15.5488C115.778 15.0976 115.212 14.872 114.492 14.872C113.753 14.872 113.162 15.1168 112.721 15.6064C112.279 16.096 112.058 16.8064 112.058 17.7376V22H111.05V14.1376H112.058V15.4912C112.308 15.0016 112.663 14.632 113.124 14.3824C113.585 14.1232 114.098 13.9936 114.665 13.9936C115.346 13.9936 115.942 14.1568 116.45 14.4832C116.969 14.8096 117.343 15.2896 117.574 15.9232C117.785 15.2992 118.145 14.824 118.654 14.4976C119.172 14.1616 119.758 13.9936 120.41 13.9936ZM135.134 13.9936C136.055 13.9936 136.804 14.2864 137.38 14.872C137.966 15.448 138.259 16.288 138.259 17.392V22H137.265V17.5072C137.265 16.6528 137.059 16 136.646 15.5488C136.233 15.0976 135.671 14.872 134.961 14.872C134.222 14.872 133.631 15.1168 133.19 15.6064C132.748 16.096 132.527 16.8064 132.527 17.7376V22H131.534V17.5072C131.534 16.6528 131.327 16 130.915 15.5488C130.502 15.0976 129.935 14.872 129.215 14.872C128.476 14.872 127.886 15.1168 127.444 15.6064C127.003 16.096 126.782 16.8064 126.782 17.7376V22H125.774V14.1376H126.782V15.4912C127.031 15.0016 127.387 14.632 127.847 14.3824C128.308 14.1232 128.822 13.9936 129.388 13.9936C130.07 13.9936 130.665 14.1568 131.174 14.4832C131.692 14.8096 132.067 15.2896 132.297 15.9232C132.508 15.2992 132.868 14.824 133.377 14.4976C133.895 14.1616 134.481 13.9936 135.134 13.9936ZM147.309 14.1376V22H146.301V20.6176C146.07 21.1072 145.715 21.4816 145.235 21.7408C144.755 22 144.217 22.1296 143.622 22.1296C142.681 22.1296 141.913 21.8416 141.318 21.2656C140.723 20.68 140.425 19.8352 140.425 18.7312V14.1376H141.419V18.616C141.419 19.4704 141.63 20.1232 142.053 20.5744C142.485 21.0256 143.07 21.2512 143.809 21.2512C144.568 21.2512 145.173 21.0112 145.624 20.5312C146.075 20.0512 146.301 19.3456 146.301 18.4144V14.1376H147.309ZM153.296 13.9936C154.237 13.9936 155.005 14.2864 155.6 14.872C156.195 15.448 156.493 16.288 156.493 17.392V22H155.499V17.5072C155.499 16.6528 155.283 16 154.851 15.5488C154.429 15.0976 153.848 14.872 153.109 14.872C152.351 14.872 151.746 15.112 151.295 15.592C150.843 16.072 150.618 16.7776 150.618 17.7088V22H149.61V14.1376H150.618V15.4768C150.867 14.9968 151.227 14.632 151.698 14.3824C152.168 14.1232 152.701 13.9936 153.296 13.9936ZM159.226 12.6544C159.025 12.6544 158.852 12.5824 158.708 12.4384C158.564 12.2944 158.492 12.1168 158.492 11.9056C158.492 11.6944 158.564 11.5216 158.708 11.3872C158.852 11.2432 159.025 11.1712 159.226 11.1712C159.428 11.1712 159.601 11.2432 159.745 11.3872C159.889 11.5216 159.961 11.6944 159.961 11.9056C159.961 12.1168 159.889 12.2944 159.745 12.4384C159.601 12.5824 159.428 12.6544 159.226 12.6544ZM159.73 14.1376V22H158.722V14.1376H159.73ZM163.323 14.9872V19.8688C163.323 20.3488 163.415 20.68 163.597 20.8624C163.779 21.0448 164.101 21.136 164.562 21.136H165.483V22H164.403C163.693 22 163.165 21.8368 162.819 21.5104C162.474 21.1744 162.301 20.6272 162.301 19.8688V14.9872H161.207V14.1376H162.301V12.1648H163.323V14.1376H165.483V14.9872H163.323ZM173.626 14.1376L168.96 25.7008H167.909L169.435 21.9568L166.21 14.1376H167.319L169.997 20.848L172.589 14.1376H173.626Z" fill="#363C44"/>
</g>
<defs>
<clipPath id="clip0_0_820">
<rect width="174" height="29" fill="white"/>
</clipPath>
</defs>
</svg>
